HIERARCHY
ROOT root
{
	OFFSET	0	13.1	24.9
	CHANNELS 6  Xposition Yposition Zposition Xrotation Yrotation Zrotation
	JOINT spine_1
	{
		OFFSET	0	9.99999	0
		CHANNELS 3  Xrotation Yrotation Zrotation
		JOINT spine_2
		{
			OFFSET	0	112	-10
			CHANNELS 3  Xrotation Yrotation Zrotation
			JOINT spine_3
			{
				OFFSET	0	206.5	19.3
				CHANNELS 3  Xrotation Yrotation Zrotation
				JOINT spine_4
				{
					OFFSET	0	110.4	14.6
					CHANNELS 3  Xrotation Yrotation Zrotation
					JOINT neck_1
					{
						OFFSET	0	71.8	-50.3
						CHANNELS 3  Xrotation Yrotation Zrotation
						JOINT neck_2
						{
							OFFSET	0	86.2	-25.8
							CHANNELS 3  Xrotation Yrotation Zrotation
							JOINT head_ee
							{
								OFFSET	0	179.8	-8.7
								CHANNELS 3  Xrotation Yrotation Zrotation
								End Site
								{
									OFFSET	1	0	0
								}
							}
						}
					}
					JOINT left_clavicle
					{
						OFFSET	-43.2	22.4	-70.8
						CHANNELS 3  Xrotation Yrotation Zrotation
						JOINT left_shoulder
						{
							OFFSET	-93.9	-5.79999	48.7
							CHANNELS 3  Xrotation Yrotation Zrotation
							JOINT left_elbow
							{
								OFFSET	-291.4	-30.8	15.2
								CHANNELS 3  Xrotation Yrotation Zrotation
								JOINT left_lowarm_twist
								{
									OFFSET	-110.7	-3.89999	13.6
									CHANNELS 3  Xrotation Yrotation Zrotation
									JOINT left_hand
									{
										OFFSET	-110.7	-3.89999	13.6
										CHANNELS 3  Xrotation Yrotation Zrotation
										JOINT left_ee
										{
											OFFSET	-80.8	-5.10001	12.1
											CHANNELS 3  Xrotation Yrotation Zrotation
											End Site
											{
												OFFSET	1	0	0
											}
										}
									}
								}
							}
						}
					}
					JOINT right_clavicle
					{
						OFFSET	43.2	22.4	-70.8
						CHANNELS 3  Xrotation Yrotation Zrotation
						JOINT right_shoulder
						{
							OFFSET	93.9	-5.79999	48.7
							CHANNELS 3  Xrotation Yrotation Zrotation
							JOINT right_elbow
							{
								OFFSET	291.4	-30.8	15.2
								CHANNELS 3  Xrotation Yrotation Zrotation
								JOINT right_lowarm_twist
								{
									OFFSET	110.7	-3.89999	13.6
									CHANNELS 3  Xrotation Yrotation Zrotation
									JOINT right_hand
									{
										OFFSET	110.7	-3.89999	13.6
										CHANNELS 3  Xrotation Yrotation Zrotation
										JOINT right_ee
										{
											OFFSET	80.8	-5.10001	12.1
											CHANNELS 3  Xrotation Yrotation Zrotation
											End Site
											{
												OFFSET	1	0	0
											}
										}
									}
								}
							}
						}
					}
				}
			}
		}
	}
	JOINT left_hip
	{
		OFFSET	-82.8	-127.5	0.300001
		CHANNELS 3  Xrotation Yrotation Zrotation
		JOINT left_knee
		{
			OFFSET	-28.2	-396.7	2.2
			CHANNELS 3  Xrotation Yrotation Zrotation
			JOINT left_ankle
			{
				OFFSET	-11.7	-411.3	35.4
				CHANNELS 3  Xrotation Yrotation Zrotation
				JOINT left_toes
				{
					OFFSET	0	-60	-88.6
					CHANNELS 3  Xrotation Yrotation Zrotation
					JOINT left_foot_ee
					{
						OFFSET	-22.5	-16.5	-42.2
						CHANNELS 3  Xrotation Yrotation Zrotation
						End Site
						{
							OFFSET	1	0	0
						}
					}
				}
			}
		}
	}
	JOINT right_hip
	{
		OFFSET	82.8	-127.5	0.300001
		CHANNELS 3  Xrotation Yrotation Zrotation
		JOINT right_knee
		{
			OFFSET	28.2	-396.7	2.2
			CHANNELS 3  Xrotation Yrotation Zrotation
			JOINT right_ankle
			{
				OFFSET	11.7	-411.3	35.4
				CHANNELS 3  Xrotation Yrotation Zrotation
				JOINT right_toes
				{
					OFFSET	0	-60	-88.6
					CHANNELS 3  Xrotation Yrotation Zrotation
					JOINT right_foot_ee
					{
						OFFSET	22.5	-16.5	-42.2
						CHANNELS 3  Xrotation Yrotation Zrotation
						End Site
						{
							OFFSET	1	0	0
						}
					}
				}
			}
		}
	}
}
MOTION
Frames: 13
Frame Time: 0.02
2796.31103291 714.6 -1713.19895664 6.73547252824 48.641783335 -11.1723721357 -0.956466 0.717807 3.35445 -0.950348 0.503026 3.39326 -0.915263 -0.276067 3.41919 -0.931475 0.26707 3.4199 -5.41436 16.5711 3.13842 -5.26825 28.2885 6.15238 -0.0 0.0 -0.0 -1.48636 7.55915 -1.75012 8.57318 -15.2287 59.344 1.36594 -34.0823 0.4187 -57.3729 -4.95796 5.01191 -0.220386 18.3653 6.1105 -0.0 0.0 -0.0 12.7768 18.7073 -25.8121 -21.4821 29.8879 -61.207 0.19557 5.53367 -0.00945151 -10.1262 0.464804 -1.20664 -3.3506 6.42879 26.2359 0.0 0.0 0.0 -2.27036 -20.8981 10.8594 -2.71774 0.10232 0.404495 40.5671 25.1589 -5.22734 -34.5455 0.0 0.0 -0.0 0.0 -0.0 10.7628 32.0686 0.104092 -59.8473 2.18352 -8.5086 28.4923 -7.74297 3.72594 -7.55365 0.0 0.0 0.0 0.0 0.0 
2782.80147741 717.847 -1690.5066761 6.62165524562 51.4420896101 -11.3750422024 -0.926651 0.700994 3.53784 -0.919813 0.4746 3.57521 -0.884482 -0.343017 3.5902 -0.902393 0.227915 3.59933 -6.71965 16.7498 2.21239 -6.69455 29.5494 5.58768 -0.0 0.0 -0.0 -1.50543 7.52254 -1.78969 9.88755 -14.3164 57.9022 1.60346 -38.4575 0.559319 -57.8772 -5.01999 5.0302 -0.601114 18.3539 3.8026 -0.0 0.0 -0.0 12.6545 18.4961 -25.5413 -22.4011 29.3532 -61.0112 0.201318 5.69525 -0.0100139 -9.72847 0.442554 -1.16088 -3.45707 5.42837 26.5477 0.0 0.0 0.0 -4.06472 -21.026 11.2061 1.77604 -0.0772 -0.261587 37.2653 26.7989 -4.95507 -34.22 0.0 0.0 -0.0 0.0 -0.0 14.2678 28.7914 -1.54744 -55.3641 1.72073 -7.99526 26.6888 -8.413 3.52594 -10.6173 0.0 0.0 0.0 0.0 0.0 
2770.97983014 713.792 -1663.48888279 6.08243326732 54.742277751 -11.2440916425 -0.696447 0.530907 3.60929 -0.689251 0.300318 3.63571 -0.665076 -0.512964 3.61188 -0.683272 0.063508 3.64752 -7.18775 16.8885 2.03104 -7.2113 30.0225 5.563 -0.0 0.0 -0.0 -1.54403 6.87931 -1.95635 11.3838 -13.5846 56.5879 1.72822 -40.5636 0.638704 -58.0539 -5.04177 5.03648 -0.84202 18.2078 2.28709 -0.0 0.0 -0.0 12.7355 19.0992 -25.6916 -22.9694 29.0124 -60.7831 0.201717 5.70647 -0.0100535 -9.32149 0.42012 -1.11391 -3.53785 4.31872 26.6032 0.0 0.0 0.0 -6.43062 -18.6727 11.907 5.54882 -0.267936 -0.808786 35.7932 26.4727 -4.79042 -33.1562 0.0 0.0 -0.0 0.0 -0.0 16.8526 27.7796 -2.08094 -53.0689 1.49982 -7.71903 25.8745 -12.5112 3.44985 -12.8283 0.0 0.0 0.0 0.0 0.0 
2758.12085338 710.677 -1640.6624161 5.79839881219 56.5633571098 -10.9878544435 -0.683141 0.5721 3.44331 -0.676615 0.35197 3.47268 -0.650519 -0.425428 3.46446 -0.667243 0.126714 3.48816 -7.28346 17.3622 1.18423 -7.32549 31.5261 4.85944 -0.0 0.0 -0.0 -1.57317 6.17876 -2.1154 12.3957 -13.3967 55.4232 1.87148 -42.8285 0.734017 -57.8862 -5.02111 5.03052 -0.765227 15.6759 1.67751 -0.0 0.0 -0.0 12.6552 18.5524 -25.5396 -24.9286 28.3717 -59.4743 0.229942 6.49851 -0.013054 -9.35068 0.421717 -1.11728 -3.59353 3.25728 26.4837 0.0 0.0 0.0 -7.60764 -16.6796 12.33 6.94209 -0.347448 -1.00759 36.0345 27.0266 -4.83395 -31.7965 0.0 0.0 -0.0 0.0 -0.0 18.9137 25.1797 -1.32935 -50.4694 1.2633 -7.39595 24.6533 -9.94173 3.29572 -14.2681 0.0 0.0 0.0 0.0 0.0 
2736.66579215 713.388 -1614.57926859 6.67523290972 59.5160630094 -12.446899337 -0.792942 0.46253 3.48855 -0.786205 0.239748 3.51087 -0.766658 -0.550591 3.47575 -0.783514 0.00489584 3.51904 -8.75117 17.6607 0.413464 -8.98835 32.8499 4.62731 -0.0 0.0 -0.0 -1.38638 5.2377 -1.91523 14.593 -13.1981 54.3007 2.11931 -46.3872 0.908143 -58.4064 -5.08525 5.04881 -1.03175 15.2285 -0.160412 -0.0 0.0 -0.0 12.5206 18.3423 -25.2404 -26.6393 27.6848 -58.7735 0.200083 5.66055 -0.00989167 -9.07499 0.406694 -1.08538 -3.69402 2.06123 26.621 0.0 0.0 0.0 -8.1639 -14.4772 14.8952 6.03388 -0.295067 -0.878211 34.4299 27.2752 -4.66937 -29.9821 0.0 0.0 -0.0 0.0 -0.0 22.5729 24.53 -2.7539 -46.8485 0.958906 -6.92901 23.6373 -11.0219 3.17987 -16.2018 0.0 0.0 0.0 0.0 0.0 
2726.57157983 706.668 -1596.49944866 6.56816328547 61.6286982456 -12.3100461851 -0.840183 0.445415 3.45851 -0.833558 0.224574 3.47981 -0.815089 -0.561369 3.44161 -0.831615 -0.0111288 3.48703 -9.39451 17.7501 0.349061 -9.72351 33.1521 4.79749 -0.0 0.0 -0.0 -1.45068 4.88348 -2.08588 15.8639 -13.4412 53.24 2.25693 -48.1826 1.00927 -58.4709 -5.09323 5.05104 -1.04703 14.6997 -0.487508 -0.0 0.0 -0.0 12.4163 18.2781 -25.0033 -27.2803 27.2775 -58.4461 0.192656 5.45172 -0.00917256 -9.08515 0.407244 -1.08655 -3.72955 1.1735 26.4207 0.0 0.0 0.0 -8.90209 -11.6591 15.8492 3.9406 -0.182216 -0.577043 34.2814 27.0301 -4.64534 -29.038 0.0 0.0 -0.0 0.0 -0.0 26.2431 23.1648 -4.56389 -41.8802 0.590701 -6.25947 22.9119 -11.2413 3.09408 -16.7242 0.0 0.0 0.0 0.0 0.0 
2717.78140903 703.271 -1582.63201559 6.54106670415 61.957965841 -12.5063029475 -0.914223 0.519475 3.44522 -0.907671 0.299329 3.47125 -0.884458 -0.490643 3.44944 -0.901055 0.0599458 3.4836 -9.37331 18.1769 1.10212 -9.70617 33.4488 5.63489 -0.0 0.0 -0.0 -1.5532 5.32733 -2.20788 16.6263 -13.5843 52.5125 2.35499 -49.3897 1.08304 -58.4545 -5.0912 5.05047 -0.867588 13.3679 0.0494364 -0.0 0.0 -0.0 12.3651 18.1847 -24.8906 -27.6472 27.0545 -58.447 0.225992 6.38782 -0.0126109 -9.56936 0.433743 -1.14254 -3.74232 0.608433 26.216 0.0 0.0 0.0 -9.54274 -9.68908 16.4513 2.08463 -0.0914406 -0.306794 37.5251 25.6195 -4.94309 -28.121 0.0 0.0 -0.0 0.0 -0.0 29.0394 22.344 -5.22692 -37.4282 0.311309 -5.63486 18.21 -10.9366 2.5115 -18.2152 0.0 0.0 0.0 0.0 0.0 
2705.09395232 710.33 -1576.23245588 4.5499240371 61.87379618 -10.466901738 -0.935087 0.767987 3.41402 -0.928772 0.549321 3.4559 -0.890124 -0.243509 3.49076 -0.906992 0.310504 3.48545 -7.74235 18.3655 0.0677174 -7.85858 34.2642 4.13565 -0.0 0.0 -0.0 -1.23225 5.46706 -1.59946 17.111 -13.5624 51.9937 2.45069 -50.5131 1.1563 -59.989 -5.28138 5.10084 -1.317 14.5305 -2.23972 -0.0 0.0 -0.0 12.6184 18.0528 -25.4832 -27.9512 26.8383 -58.1463 0.187761 5.314 -0.00871343 -9.37232 0.422903 -1.11978 -3.742 0.436385 26.1218 0.0 0.0 0.0 -9.60444 -7.02191 16.8071 1.7469 -0.075868 -0.257314 34.2278 26.3529 -4.61861 -27.2232 0.0 0.0 -0.0 0.0 -0.0 30.1752 22.29 -5.65118 -27.8695 -0.119755 -4.23325 20.6123 -10.5709 2.81155 -20.9923 0.0 0.0 0.0 0.0 0.0 
2705.25123794 710.33 -1575.43832905 4.56428611926 61.9699210345 -10.4831796156 -0.935087 0.767987 3.41402 -0.928772 0.549321 3.4559 -0.890124 -0.243509 3.49076 -0.906992 0.310504 3.48545 -7.74235 18.3655 0.0677174 -7.85858 34.2642 4.13565 -0.0 0.0 -0.0 -1.23225 5.46706 -1.59946 17.111 -13.5624 51.9937 2.45069 -50.5131 1.1563 -59.989 -5.28138 5.10084 -1.317 14.5305 -2.23972 -0.0 0.0 -0.0 12.6184 18.0528 -25.4832 -27.9512 26.8383 -58.1463 0.187761 5.314 -0.00871343 -9.37232 0.422903 -1.11978 -3.742 0.436385 26.1218 0.0 0.0 0.0 -9.60444 -7.02191 16.8071 1.7469 -0.075868 -0.257314 34.2278 26.3529 -4.61861 -27.2232 0.0 0.0 -0.0 0.0 -0.0 30.1752 22.29 -5.65118 -27.8695 -0.119755 -4.23325 20.6123 -10.5709 2.81155 -20.9923 0.0 0.0 0.0 0.0 0.0 
2679.46932771 700.47 -1577.61626602 0.568095159621 59.7261961481 -7.0878150291 -0.878063 0.958955 3.40338 -0.871925 0.740579 3.45742 -0.821521 -0.0529118 3.53536 -0.838604 0.505748 3.49944 -6.73859 18.667 0.233788 -6.71215 34.5509 4.03343 -0.0 0.0 -0.0 -0.834995 5.67479 -0.845203 19.1243 -13.9833 50.9417 2.63624 -52.5481 1.3016 -61.6242 -5.4854 5.14887 -1.60637 14.1981 -4.19586 -0.0 0.0 -0.0 12.4462 17.8428 -25.0968 -28.363 26.5417 -58.1152 0.213536 6.03842 -0.0112628 -9.17078 0.411896 -1.09647 -3.63482 0.395682 25.3023 0.0 0.0 0.0 -8.85957 -3.70829 18.6787 -0.252532 0.010316 0.0373806 34.3139 26.7279 -4.63946 -26.4216 0.0 0.0 -0.0 0.0 -0.0 31.6745 21.2746 -6.2257 -13.3075 -0.31533 -2.0133 19.4499 -9.46014 2.66439 -25.4161 0.0 0.0 0.0 0.0 0.0 
2678.92799127 700.47 -1580.60462441 0.562322801764 59.3822746156 -7.08111943667 -0.878063 0.958955 3.40338 -0.871925 0.740579 3.45742 -0.821521 -0.0529118 3.53536 -0.838604 0.505748 3.49944 -6.73859 18.667 0.233788 -6.71215 34.5509 4.03343 -0.0 0.0 -0.0 -0.834995 5.67479 -0.845203 19.1243 -13.9833 50.9417 2.63624 -52.5481 1.3016 -61.6242 -5.4854 5.14887 -1.60637 14.1981 -4.19586 -0.0 0.0 -0.0 12.4462 17.8428 -25.0968 -28.363 26.5417 -58.1152 0.213536 6.03842 -0.0112628 -9.17078 0.411896 -1.09647 -3.63482 0.395682 25.3023 0.0 0.0 0.0 -8.85957 -3.70829 18.6787 -0.252532 0.010316 0.0373806 34.3139 26.7279 -4.63946 -26.4216 0.0 0.0 -0.0 0.0 -0.0 31.6745 21.2746 -6.2257 -13.3075 -0.31533 -2.0133 19.4499 -9.46014 2.66439 -25.4161 0.0 0.0 0.0 0.0 0.0 
2663.33558893 693.962 -1587.19747465 -0.747355410886 58.4978729151 -6.24373402058 -0.751255 0.874815 3.5086 -0.744642 0.649926 3.55707 -0.698676 -0.156031 3.61252 -0.716643 0.416081 3.59189 -5.68095 18.9808 0.154299 -5.49609 35.0092 3.66516 -0.0 0.0 -0.0 -0.616035 5.24706 -0.50256 20.0565 -14.3409 50.0908 2.5477 -51.5997 1.23175 -61.8084 -5.50847 5.15391 -1.60087 14.1661 -4.17647 -0.0 0.0 -0.0 12.4413 17.7672 -25.0895 -27.9736 26.8615 -58.4916 0.250602 7.07671 -0.015496 -9.22263 0.41472 -1.10247 -3.54221 0.719098 24.7868 0.0 0.0 0.0 -9.01301 -2.57992 19.1079 -0.361097 0.0147003 0.0534642 38.0733 26.283 -5.02031 -25.1985 0.0 0.0 -0.0 0.0 -0.0 32.1509 20.8285 -6.75298 -7.30429 -0.231103 -1.09641 15.8436 -7.63944 2.20276 -27.8016 0.0 0.0 0.0 0.0 0.0 
2629.09110472 686.952 -1591.05649111 -0.845465094475 59.249810466 -6.70058012494 -0.841781 0.706563 3.6213 -0.834612 0.474857 3.65885 -0.798494 -0.35612 3.67229 -0.817237 0.227914 3.68246 -4.96483 18.5489 0.0583243 -4.6885 34.1471 3.25715 -0.0 0.0 -0.0 -0.313948 5.28471 0.0547023 19.6678 -14.1229 50.7171 2.74965 -53.7056 1.39233 -62.5561 -5.60225 5.17362 -1.65568 12.9573 -5.08727 -0.0 0.0 -0.0 11.9204 17.6186 -23.9001 -27.4647 27.0666 -59.4653 0.32333 9.09987 -0.0257303 -9.51871 0.430949 -1.13669 -3.37541 0.806293 23.6053 0.0 0.0 0.0 -10.4711 -1.52408 20.4219 -3.68787 0.134176 0.549972 40.1314 25.6881 -5.2035 -25.1256 0.0 0.0 -0.0 0.0 -0.0 33.7712 20.0884 -6.86074 2.39031 0.105787 0.351501 10.044 -9.97219 1.42839 -31.1682 0.0 0.0 0.0 0.0 0.0 
